<?xml version="1.0" encoding="UTF-8" standalone="no"?>
<!-- Created with Inkscape (http://www.inkscape.org/) -->

<svg
   width="1824.9755mm"
   height="437.34296mm"
   viewBox="0 0 1824.9755 437.34296"
   version="1.1"
   id="svg1"
   xml:space="preserve"
   xmlns="http://www.w3.org/2000/svg"
   xmlns:svg="http://www.w3.org/2000/svg"><defs
     id="defs1" /><path
     id="path2"
     style="fill:#ffffff;fill-opacity:1;stroke-width:20.2562;stroke-linejoin:round"
     d="M 257.53518 112.83807 L 169.9395 113.03031 L 108.13604 175.10559 L 108.32827 262.70128 L 170.40355 324.50474 L 257.99924 324.3125 L 319.8027 262.23722 L 319.61047 174.64154 L 257.53518 112.83807 z M 213.96937 143.03881 L 279.46925 180.85511 L 279.46925 256.4877 L 213.96937 294.304 L 148.47001 256.4877 L 148.47001 180.85511 L 213.96937 143.03881 z " /><path
     style="font-weight:bold;font-size:229.803px;line-height:1;font-family:Ubuntu;-inkscape-font-specification:'Ubuntu Bold';text-align:center;text-anchor:middle;fill:#ffffff;stroke-width:107.72;stroke-linejoin:round"
     d="M 350.89294,286.46335 V 127.20987 h 31.48301 V 259.3466 h 71.46873 v 27.11675 z m 124.55305,0 V 166.04658 h 29.87439 v 120.41677 z m 14.93719,-139.49042 q -7.35369,0 -12.86896,-4.82586 -5.51528,-5.05567 -5.51528,-13.55838 0,-8.50271 5.51528,-13.32857 5.51527,-5.05567 12.86896,-5.05567 7.5835,0 12.86897,5.05567 5.51527,4.82586 5.51527,13.32857 0,8.50271 -5.51527,13.55838 -5.28547,4.82586 -12.86897,4.82586 z m 96.97683,142.47786 q -8.73251,0 -17.69483,-1.14902 -8.96231,-0.91921 -16.77561,-2.29803 -7.81331,-1.60862 -13.55838,-3.44704 V 112.96209 l 29.87439,-4.82586 v 61.5872 q 5.28547,-2.52784 11.94975,-4.36626 6.89409,-1.83842 14.9372,-1.83842 17.23522,0 28.95518,7.8133 11.94975,7.8133 17.92463,22.06109 6.20468,14.01798 6.20468,32.86182 0,19.30346 -7.3537,33.55124 -7.35369,14.01798 -21.37167,21.83129 -13.78818,7.8133 -33.09164,7.8133 z m -0.2298,-25.73794 q 10.11133,0 17.00542,-4.59606 7.1239,-4.82586 10.80074,-13.32857 3.67685,-8.50271 3.67685,-20.22266 0,-8.73252 -1.60862,-15.39681 -1.60862,-6.89409 -5.05567,-11.49015 -3.44704,-4.82586 -8.73251,-7.12389 -5.05566,-2.52783 -12.40936,-2.52783 -6.43448,0 -12.40936,1.83842 -5.74508,1.83843 -9.19212,4.36626 v 66.87267 q 2.75763,0.45961 7.35369,1.14902 4.59606,0.4596 10.57094,0.4596 z m 89.85274,22.7505 V 172.25126 q 8.27291,-2.98744 20.22267,-5.74507 12.17955,-2.98744 27.34655,-2.98744 3.90665,0 9.19212,0.68941 5.28547,0.4596 10.11133,1.37881 5.05567,0.91922 8.27291,2.29803 l -5.05566,24.81873 q -4.13646,-1.14902 -10.34114,-2.29803 -5.97488,-1.14902 -13.55838,-1.14902 -4.59606,0 -9.42192,0.68941 -4.59606,0.68941 -6.89409,1.60862 v 94.90864 z m 134.49172,2.52783 q -14.9372,0 -26.19754,-3.67685 -11.26035,-3.90665 -17.69483,-12.40936 -6.20468,-8.73251 -6.20468,-23.2101 0,-13.78818 6.89409,-22.06109 7.12389,-8.27291 18.84384,-11.71995 11.71995,-3.67685 25.04853,-3.67685 6.66429,0 12.17956,0.68941 5.74507,0.68941 8.50271,1.60862 v -4.13645 q 0,-6.43449 -2.29803,-11.49015 -2.06823,-5.05567 -7.5835,-7.8133 -5.28547,-2.98744 -14.70739,-2.98744 -9.88153,0 -17.92464,1.37882 -8.0431,1.37881 -13.32857,3.44704 l -3.90665,-24.35912 q 5.51527,-1.83842 15.85641,-3.67685 10.57093,-2.06822 22.52069,-2.06822 19.07365,0 30.10419,5.97488 11.03055,5.97487 15.62661,16.77561 4.59606,10.80074 4.59606,25.50814 v 72.15814 q -6.66429,1.37881 -19.76306,3.44704 -12.86897,2.29803 -30.5638,2.29803 z m 2.29803,-23.4399 q 5.97488,0 11.03054,-0.22981 5.05567,-0.4596 8.04311,-1.14901 v -29.41479 q -2.06823,-0.6894 -6.66429,-1.14901 -4.36626,-0.68941 -9.19212,-0.68941 -6.66429,0 -12.63916,1.37882 -5.74508,1.14901 -9.42193,4.59606 -3.67684,3.44704 -3.67684,10.11133 0,9.19212 5.97487,12.86897 6.20468,3.67685 16.54582,3.67685 z m 80.66066,20.91207 V 172.25126 q 8.27291,-2.98744 20.22267,-5.74507 12.17955,-2.98744 27.34655,-2.98744 3.90665,0 9.19212,0.68941 5.28547,0.4596 10.11133,1.37881 5.05567,0.91922 8.27291,2.29803 l -5.05567,24.81873 q -4.13645,-1.14902 -10.34113,-2.29803 -5.97488,-1.14902 -13.55838,-1.14902 -4.59606,0 -9.42192,0.68941 -4.59606,0.68941 -6.89409,1.60862 v 94.90864 z m 108.86894,42.74336 q -7.58353,0 -14.01802,-1.60863 -6.20468,-1.37881 -9.88152,-2.98743 l 5.28546,-24.12932 q 4.36626,1.60862 8.50271,2.29803 4.36626,0.91921 8.73247,0.91921 6.8941,0 11.4902,-2.29803 4.5961,-2.06822 7.8133,-6.89409 3.447,-4.59606 5.9749,-11.49015 -8.2729,-16.08621 -16.316,-34.24064 -8.0431,-18.38424 -15.62664,-39.06651 -7.5835,-20.91207 -14.01798,-43.66257 h 31.94262 q 2.298,9.42192 5.5153,20.45247 3.2172,10.80074 6.8941,22.29089 3.9066,11.26034 8.0431,22.29089 4.1364,11.03054 8.0431,20.45246 4.8258,-12.86896 9.1921,-27.34655 4.3662,-14.47759 8.2729,-29.41479 4.1364,-14.93719 7.5835,-28.72537 h 30.7936 q -6.4345,22.9803 -13.3286,44.35198 -6.8941,21.37168 -14.7074,41.13473 -7.5835,19.76306 -16.0862,38.83671 -6.4345,13.55838 -13.0988,22.06109 -6.4344,8.73251 -15.1669,12.63916 -8.7326,4.13646 -21.8313,4.13646 z m 211.8778,-39.52612 q -20.4525,0 -33.3214,-4.13645 -12.6392,-4.36626 -18.6141,-7.81331 l 9.1921,-25.04852 q 6.4345,3.67685 17.0055,6.89409 10.5709,3.21724 25.7379,3.21724 16.0862,0 22.5207,-5.05567 6.4345,-5.28546 6.4345,-14.01798 0,-6.89409 -3.9067,-11.26035 -3.6768,-4.59606 -11.2603,-8.2729 -7.5835,-3.67685 -19.0737,-7.5835 -11.0305,-4.13646 -21.1419,-9.42192 -9.8815,-5.51528 -16.0862,-14.24779 -6.2046,-8.73251 -6.2046,-22.9803 0,-14.47759 6.894,-24.81872 7.1239,-10.34114 19.7631,-15.85641 12.869,-5.74507 30.334,-5.74507 15.3968,0 26.8869,3.44704 11.72,3.44705 19.0737,7.5835 l -9.4219,24.81872 q -6.6643,-3.67685 -15.167,-6.20468 -8.5027,-2.75763 -19.7631,-2.75763 -13.3286,0 -19.9928,4.13645 -6.4345,4.13645 -6.4345,13.09877 0,6.43448 3.9066,10.57094 3.9067,4.13645 10.571,7.35369 6.6642,2.98744 14.9372,5.97488 15.8564,5.74508 26.4273,11.94976 10.8007,6.20468 16.316,15.6266 5.7451,9.19212 5.7451,24.58892 0,14.47759 -6.8941,24.81872 -6.8941,10.34114 -20.6823,15.85641 -13.5583,5.28547 -33.781,5.28547 z m 87.3249,-3.21724 V 112.96209 l 29.8743,-4.82586 v 103.64115 q 5.2855,-5.51528 10.8008,-11.71996 5.7451,-6.20468 11.2603,-12.40936 5.7451,-6.20468 10.571,-11.71995 5.0556,-5.74508 8.5027,-9.88153 h 35.6194 q -7.5835,8.73251 -15.8564,17.69483 -8.2729,8.96232 -16.7756,17.92463 -8.5027,8.73252 -17.2352,17.69483 6.8941,5.97488 14.2478,14.24779 7.5835,8.27291 14.7074,17.69483 7.1239,9.19212 13.0987,18.38424 6.2047,8.96232 10.3412,16.77562 h -34.4705 q -5.5152,-8.96232 -12.8689,-19.07365 -7.3537,-10.34113 -15.6266,-19.76306 -8.273,-9.42192 -16.3161,-15.6266 v 54.46331 z m 128.9193,0 V 166.04658 h 29.8744 v 120.41677 z m 14.9372,-139.49042 q -7.3537,0 -12.869,-4.82586 -5.5153,-5.05567 -5.5153,-13.55838 0,-8.50271 5.5153,-13.32857 5.5153,-5.05567 12.869,-5.05567 7.5835,0 12.8689,5.05567 5.5153,4.82586 5.5153,13.32857 0,8.50271 -5.5153,13.55838 -5.2854,4.82586 -12.8689,4.82586 z m 93.0701,141.78845 q -17.4651,-0.45961 -27.1168,-5.05567 -9.6517,-4.59606 -13.5584,-13.32857 -3.6768,-8.73251 -3.6768,-21.14188 V 112.96209 l 30.1042,-4.82586 v 135.58376 q 0,9.65173 3.447,14.47759 3.4471,4.59606 15.167,5.74507 z m 69.6302,0 q -17.465,-0.45961 -27.1167,-5.05567 -9.6518,-4.59606 -13.5584,-13.32857 -3.6769,-8.73251 -3.6769,-21.14188 V 112.96209 l 30.1042,-4.82586 v 135.58376 q 0,9.65173 3.4471,14.47759 3.447,4.59606 15.167,5.74507 z m 57.6804,0.68941 q -15.8564,0 -26.1975,-2.75764 -10.1114,-2.52783 -14.018,-4.36626 l 5.5152,-24.58892 q 7.1239,2.75764 15.8564,5.05567 8.9624,2.06823 19.0737,2.06823 10.1113,0 14.9372,-2.29803 5.0557,-2.29803 5.0557,-8.73252 0,-3.67684 -2.5279,-6.20468 -2.298,-2.52783 -7.3537,-5.05566 -4.8258,-2.52784 -12.6391,-5.51528 -10.1114,-3.90665 -18.1545,-8.2729 -7.8133,-4.59606 -12.4093,-11.71996 -4.3663,-7.12389 -4.3663,-18.38424 0,-11.03054 5.5153,-18.84384 5.7451,-8.04311 15.8564,-12.40936 10.3411,-4.59606 24.5889,-4.59606 11.2604,0 20.9121,2.06822 9.6517,2.06823 14.9372,4.13646 l -5.5153,23.66971 q -5.0557,-1.83843 -12.1796,-3.67685 -6.894,-1.83842 -16.316,-1.83842 -8.5027,0 -13.3285,2.75763 -4.8259,2.52783 -4.8259,8.27291 0,3.44704 1.8384,5.97488 1.8384,2.52783 6.2047,4.82586 4.3663,2.29803 12.1796,5.28547 14.0179,5.05566 22.061,10.34113 8.0432,5.28547 11.72,12.17956 3.6768,6.89409 3.6768,17.23523 0,11.71995 -5.9748,19.53325 -5.7451,7.8133 -17.0055,11.94976 -11.2603,3.90665 -27.1167,3.90665 z"
     id="text1"
     aria-label="Library Skills" /></svg>
